<svg width="41" height="37" viewBox="0 0 41 37" fill="none" xmlns="http://www.w3.org/2000/svg">
<path d="M20.3667 7.98821C19.9624 7.98821 19.6447 7.66792 19.6447 7.26028V5.42591C19.6447 3.44596 18.0563 1.84452 16.1213 1.84452C15.1682 1.84452 14.3018 2.22304 13.6087 2.89273C12.9156 3.56242 12.569 4.46505 12.569 5.42591V7.26028C12.569 7.66792 12.2513 7.98821 11.847 7.98821C11.4427 7.98821 11.125 7.66792 11.125 7.26028V5.42591C11.125 4.08653 11.6448 2.8345 12.569 1.87364C13.5221 0.912778 14.7639 0.388672 16.0924 0.388672C18.836 0.388672 21.0598 2.63068 21.0598 5.39679V7.23116C21.0887 7.66792 20.771 7.98821 20.3667 7.98821Z" fill="#FFD497"/>
<path d="M31.7162 32.5341H10.6625L7.16797 5.33887H30.2433L31.7162 32.5341Z" fill="#E8505B"/>
<path d="M10.6621 32.5341L5.66579 31.6606L0.640625 32.5341L2.1424 5.33887H9.16029L10.6621 32.5341Z" fill="#E8505B"/>
<path d="M19.8151 14.7138C17.0714 14.7138 14.8477 12.4718 14.8477 9.70567V7.8713C14.8477 7.46366 15.1653 7.14337 15.5697 7.14337C15.974 7.14337 16.2917 7.46366 16.2917 7.8713V9.70567C16.2917 11.6856 17.8801 13.2579 19.8151 13.2579C21.75 13.2579 23.3673 11.6565 23.3673 9.67655V7.84218C23.3673 7.43454 23.685 7.11426 24.0893 7.11426C24.4937 7.11426 24.8113 7.43454 24.8113 7.84218V9.67655C24.8113 12.4718 22.5876 14.7138 19.8151 14.7138Z" fill="white"/>
<path opacity="0.1" d="M21.1172 28.8073C21.1172 30.1466 21.4637 31.4278 22.0702 32.5342H31.7451L31.1386 21.3533C30.4166 21.1204 29.6657 21.0039 28.886 21.0039C24.5828 21.0039 21.1172 24.4979 21.1172 28.8073Z" fill="#0C1E5B"/>
<path d="M32.9001 36.6106C37.1747 36.6106 40.64 33.1169 40.64 28.8073C40.64 24.4976 37.1747 21.0039 32.9001 21.0039C28.6254 21.0039 25.1602 24.4976 25.1602 28.8073C25.1602 33.1169 28.6254 36.6106 32.9001 36.6106Z" fill="#FF6966"/>
<path d="M32.0947 31.8349C31.8636 31.8349 31.6615 31.7476 31.4882 31.5729L29.0334 29.0979C28.6868 28.7485 28.6868 28.1953 29.0334 27.875C29.3799 27.5256 29.9287 27.5256 30.2463 27.875L32.0947 29.7385L35.5603 26.2445C35.9069 25.8951 36.4556 25.8951 36.7733 26.2445C37.1198 26.5939 37.1198 27.1471 36.7733 27.4674L32.7012 31.5729C32.5279 31.7476 32.2968 31.8349 32.0947 31.8349Z" fill="white"/>
</svg>
