<svg width="41" height="30" viewBox="0 0 41 30" fill="none" xmlns="http://www.w3.org/2000/svg">
<path d="M3.95703 29.7388C6.11623 29.7388 7.88046 27.9579 7.88046 25.7783V0.260742H30.7891V25.7783C30.7891 27.9579 29.0249 29.7388 26.8656 29.7388" fill="#E8505B"/>
<path d="M22.9399 25.778V22.7744H0.03125V25.778C0.03125 27.9577 1.79548 29.7386 3.95468 29.7386H26.8633C24.7041 29.7386 22.9399 27.9577 22.9399 25.778Z" fill="#E8505B"/>
<path d="M14.9072 5.33789H11.9844V6.61377H14.9072V5.33789Z" fill="white"/>
<path d="M26.151 5.33789H17.1719V6.61377H26.151V5.33789Z" fill="#F7C604"/>
<path d="M14.9072 9.85645H11.9844V11.1323H14.9072V9.85645Z" fill="white"/>
<path d="M26.151 9.85645H17.1719V11.1323H26.151V9.85645Z" fill="#F7C604"/>
<path d="M14.9072 14.375H11.9844V15.6509H14.9072V14.375Z" fill="white"/>
<path d="M26.151 14.374H17.1719V15.6499H26.151V14.374Z" fill="#F7C604"/>
<path d="M14.9072 18.8945H11.9844V20.1704H14.9072V18.8945Z" fill="white"/>
<path d="M26.151 18.8945H17.1719V20.1704H26.151V18.8945Z" fill="#F7C604"/>
<path opacity="0.1" d="M30.7873 19.107V3.92935C30.4713 3.87619 30.129 3.84961 29.7867 3.84961C25.5999 3.84961 22.2031 7.27853 22.2031 11.5049C22.2031 15.7312 25.5999 19.1601 29.7867 19.1601C30.129 19.1867 30.4713 19.1601 30.7873 19.107Z" fill="#0C1E5B"/>
<path d="M32.4469 17.6447C36.6352 17.6447 40.0305 14.2173 40.0305 9.98933C40.0305 5.7614 36.6352 2.33398 32.4469 2.33398C28.2586 2.33398 24.8633 5.7614 24.8633 9.98933C24.8633 14.2173 28.2586 17.6447 32.4469 17.6447Z" fill="#FF5B5B"/>
<path d="M31.1017 9.45786L31.1017 14.2158L33.7876 14.2158L33.7876 9.45786L35.5781 9.45786L32.4446 5.76314L29.3112 9.45786L31.1017 9.45786Z" fill="white"/>
</svg>
