<svg width="41" height="41" viewBox="0 0 41 41" fill="none" xmlns="http://www.w3.org/2000/svg">
<g clip-path="url(#clip0_106_5526)">
<path d="M0.96875 30.113V34.062C0.96875 34.6808 1.25617 35.2281 1.69766 35.5967V38.2211C1.69766 39.2189 2.50945 40.0307 3.50719 40.0307H5.96758C6.96531 40.0307 7.77711 39.2189 7.77711 38.2211V36.0697H21.2998V38.2211C21.2998 39.2189 22.1116 40.0307 23.1094 40.0307H25.5698C26.5678 40.0307 27.3796 39.2189 27.3796 38.2211V35.8543C28.041 35.5255 28.5007 34.8495 28.5007 34.0621V30.1131C28.5007 29.9782 28.4561 29.8471 28.3737 29.7403C25.8014 26.4461 26.2316 26.8989 26.0027 26.7266L24.3035 22.0518C23.6887 20.3682 22.0737 19.2373 20.2848 19.2373H9.47734C7.75305 19.2373 6.20844 20.2646 5.54297 21.8536C3.27281 27.2593 3.37367 26.9612 3.35031 27.1035L1.11531 29.7164C1.02067 29.8268 0.968682 29.9675 0.96875 30.113ZM6.55648 38.2211C6.55634 38.3773 6.49425 38.527 6.38384 38.6374C6.27343 38.7478 6.12372 38.8099 5.96758 38.81H3.50719C3.35104 38.8099 3.20134 38.7478 3.09093 38.6374C2.98052 38.527 2.91843 38.3773 2.91828 38.2211V36.0695H2.97375C2.97477 36.0695 2.9757 36.0698 2.97672 36.0698H6.55648V38.2211ZM25.5698 38.81H23.1095C22.9533 38.8098 22.8036 38.7477 22.6932 38.6373C22.5828 38.5269 22.5207 38.3772 22.5205 38.2211V36.0696H26.159V38.2211C26.159 38.546 25.8947 38.81 25.5698 38.81ZM6.66828 22.3262C6.89955 21.7721 7.28979 21.299 7.78973 20.9664C8.28968 20.6339 8.87692 20.457 9.47734 20.4579H20.2848C21.5634 20.4579 22.7175 21.2668 23.1565 22.4695L24.6549 26.5914H22.5069C22.4341 24.8711 21.0229 23.4911 19.285 23.4911C17.5471 23.4911 16.1359 24.8711 16.0631 26.5914H4.87125L6.66828 22.3262ZM21.2862 26.5914H17.2838C17.3548 25.5444 18.2203 24.7118 19.2849 24.7118C20.3497 24.7118 21.2151 25.5444 21.2862 26.5914ZM2.18938 30.3383L4.35031 27.8121H25.3445L27.2802 30.3211V34.0621C27.2802 34.4954 26.9277 34.848 26.4946 34.8488C19.4967 34.8488 27.5909 34.8492 2.97531 34.8488C2.54188 34.848 2.18945 34.4954 2.18945 34.0621L2.18938 30.3383Z" fill="#E8505B"/>
<path d="M6.07398 33.3893H8.36633C9.14383 33.3893 9.77625 32.7569 9.77625 31.9794V30.925C9.77625 30.1475 9.14383 29.5151 8.36633 29.5151H6.07398C5.29648 29.5151 4.66406 30.1475 4.66406 30.925V31.9794C4.66414 32.757 5.29648 33.3893 6.07398 33.3893ZM5.88477 30.925C5.88477 30.8172 5.96609 30.7358 6.07398 30.7358H8.36633C8.47422 30.7358 8.55555 30.8172 8.55555 30.925V31.9794C8.55555 32.0873 8.47422 32.1686 8.36633 32.1686H6.07398C5.96609 32.1686 5.88477 32.0873 5.88477 31.9794V30.925ZM21.1026 33.3893H23.3949C24.1724 33.3893 24.8048 32.7569 24.8048 31.9794V30.925C24.8048 30.1475 24.1724 29.5151 23.3949 29.5151H21.1026C20.3251 29.5151 19.6927 30.1475 19.6927 30.925V31.9794C19.6927 32.757 20.3251 33.3893 21.1026 33.3893ZM20.9134 30.925C20.9134 30.8172 20.9947 30.7358 21.1026 30.7358H23.3949C23.4198 30.7356 23.4446 30.7403 23.4677 30.7497C23.4907 30.7591 23.5117 30.773 23.5293 30.7906C23.547 30.8083 23.5609 30.8292 23.5703 30.8523C23.5797 30.8754 23.5844 30.9001 23.5841 30.925V31.9794C23.5841 32.0873 23.5028 32.1686 23.3949 32.1686H21.1026C20.9947 32.1686 20.9134 32.0873 20.9134 31.9794V30.925ZM13.2463 32.0617H16.2226C16.3828 32.0591 16.5355 31.9937 16.6479 31.8795C16.7602 31.7653 16.8232 31.6116 16.8232 31.4514C16.8232 31.2912 16.7602 31.1374 16.6479 31.0232C16.5355 30.909 16.3828 30.8436 16.2226 30.8411H13.2463C13.0862 30.8436 12.9334 30.909 12.821 31.0232C12.7087 31.1374 12.6457 31.2912 12.6457 31.4514C12.6457 31.6116 12.7087 31.7653 12.821 31.8795C12.9334 31.9937 13.0862 32.0591 13.2463 32.0617ZM32.0594 9.67809C32.9996 9.67809 33.7646 8.91309 33.7646 7.97285V6.2277C33.7646 5.28746 32.9996 4.52246 32.0594 4.52246H29.2193C29.0574 4.52248 28.9022 4.58679 28.7878 4.70124C28.6733 4.81569 28.609 4.97091 28.609 5.13277V13.0025C28.6115 13.1626 28.677 13.3154 28.7912 13.4277C28.9053 13.5401 29.0591 13.6031 29.2193 13.6031C29.3795 13.6031 29.5333 13.5401 29.6474 13.4277C29.7616 13.3154 29.827 13.1626 29.8296 13.0025V9.67809H32.0594ZM32.544 6.2277V7.97285C32.5439 8.10135 32.4928 8.22455 32.4019 8.31541C32.3111 8.40627 32.1879 8.45736 32.0594 8.45746H29.8296V5.74316H32.0594C32.1879 5.74325 32.3111 5.79432 32.4019 5.88517C32.4928 5.97601 32.5439 6.09921 32.544 6.2277Z" fill="#E8505B"/>
<path d="M31.1872 40.0311C31.349 40.0311 31.5043 39.9668 31.6187 39.8524C31.7332 39.7379 31.7975 39.5827 31.7975 39.4208V17.1647H36.6969C38.1237 17.1647 39.2845 16.0036 39.2845 14.5768V3.55769C39.2845 2.13082 38.1237 0.969727 36.6969 0.969727H25.6775C24.2506 0.969727 23.0898 2.13082 23.0898 3.55769V14.5768C23.0898 16.0036 24.2506 17.1647 25.6775 17.1647H30.5769V39.4207C30.5769 39.5826 30.6412 39.7379 30.7556 39.8523C30.8701 39.9668 31.0253 40.0311 31.1872 40.0311ZM24.3105 14.5768V3.55769C24.3105 2.80371 24.9238 2.19043 25.6775 2.19043H36.6969C37.4505 2.19043 38.0638 2.80371 38.0638 3.55769V14.5768C38.0638 15.3307 37.4505 15.944 36.6969 15.944H25.6775C24.9238 15.9441 24.3105 15.3307 24.3105 14.5768Z" fill="#E8505B"/>
</g>
<defs>
<clipPath id="clip0_106_5526">
<rect width="40" height="40" fill="white" transform="translate(0.128906 0.5)"/>
</clipPath>
</defs>
</svg>
