<svg width="41" height="49" viewBox="0 0 41 49" fill="none" xmlns="http://www.w3.org/2000/svg">
<path d="M20.5725 23.6223C23.7453 23.6223 26.4927 22.4842 28.7376 20.239C30.9824 17.9943 32.1203 15.2476 32.1203 12.0745C32.1203 8.9023 30.9824 6.15534 28.7372 3.90974C26.492 1.66527 23.7449 0.527344 20.5725 0.527344C17.3993 0.527344 14.6526 1.66527 12.4078 3.91012C10.1631 6.15497 9.02466 8.90202 9.02466 12.0745C9.02466 15.2476 10.163 17.9946 12.4082 20.2395C14.6534 22.484 17.4005 23.6223 20.5725 23.6223ZM40.7781 37.394C40.7133 36.4599 40.5824 35.4407 40.3896 34.3646C40.195 33.2804 39.9445 32.2555 39.6445 31.3187C39.3347 30.3504 38.9133 29.3944 38.3925 28.478C37.8518 27.527 37.2168 26.6988 36.5042 26.0174C35.7591 25.3045 34.8469 24.7313 33.7919 24.3131C32.7407 23.8974 31.5756 23.6867 30.3294 23.6867C29.84 23.6867 29.3667 23.8875 28.4526 24.4826C27.8028 24.9058 27.1511 25.3259 26.4975 25.743C25.8694 26.1433 25.0186 26.5182 23.9677 26.8576C22.9424 27.1894 21.9014 27.3577 20.8739 27.3577C19.8465 27.3577 18.8057 27.1894 17.7793 26.8576C16.7296 26.5185 15.8788 26.1436 15.2514 25.7434C14.5238 25.2785 13.8655 24.8542 13.2945 24.4822C12.3815 23.8871 11.9078 23.6862 11.4184 23.6862C10.1718 23.6862 9.00715 23.8973 7.95622 24.3136C6.90201 24.731 5.98939 25.3041 5.24354 26.0178C4.5314 26.6996 3.89605 27.5273 3.35612 28.478C2.83566 29.3943 2.41428 30.3501 2.10404 31.3191C1.80439 32.2559 1.5539 33.2804 1.35932 34.3646C1.16651 35.4393 1.0356 36.4587 0.970803 37.3951C0.906343 38.3375 0.874392 39.2817 0.875009 40.2263C0.875009 42.729 1.67058 44.755 3.23944 46.2493C4.78891 47.7238 6.83909 48.4718 9.33227 48.4718H32.4177C34.9109 48.4718 36.9603 47.7242 38.5102 46.2493C40.0794 44.7562 40.875 42.7298 40.875 40.2259C40.8746 39.2599 40.8421 38.307 40.7781 37.394Z" fill="#E8505B"/>
</svg>
